<?xml version="1.0" encoding="UTF-8"?>
<svg xmlns="http://www.w3.org/2000/svg" xmlns:xlink="http://www.w3.org/1999/xlink" width="64pt" height="64pt" viewBox="0 0 64 64" version="1.1">
<g id="surface26299738">
<path style=" stroke:none;fill-rule:nonzero;fill:rgb(0%,0%,0%);fill-opacity:1;" d="M 19.566406 10.238281 C 14.980469 10.238281 11.246094 13.972656 11.246094 18.558594 L 11.246094 43.519531 C 11.246094 48.109375 14.980469 51.839844 19.566406 51.839844 L 44.527344 51.839844 C 49.113281 51.839844 52.847656 48.109375 52.847656 43.519531 L 52.847656 18.558594 C 52.847656 13.972656 49.113281 10.238281 44.527344 10.238281 Z M 19.566406 11.519531 L 44.527344 11.519531 C 48.410156 11.519531 51.566406 14.679688 51.566406 18.558594 L 51.566406 43.519531 C 51.566406 47.402344 48.410156 50.558594 44.527344 50.558594 L 19.566406 50.558594 C 15.6875 50.558594 12.527344 47.402344 12.527344 43.519531 L 12.527344 18.558594 C 12.527344 14.679688 15.6875 11.519531 19.566406 11.519531 Z M 21.382812 13.441406 C 17.558594 13.441406 14.449219 16.550781 14.449219 20.375 L 14.449219 41.703125 C 14.449219 45.527344 17.558594 48.640625 21.382812 48.640625 L 42.710938 48.640625 C 46.539062 48.640625 49.648438 45.527344 49.648438 41.703125 L 49.648438 29.761719 C 49.648438 29.582031 49.503906 29.441406 49.328125 29.441406 C 49.152344 29.441406 49.007812 29.582031 49.007812 29.761719 L 49.007812 41.703125 C 49.007812 45.175781 46.183594 48 42.710938 48 L 21.382812 48 C 17.914062 48 15.085938 45.175781 15.085938 41.703125 L 15.085938 20.375 C 15.085938 16.90625 17.914062 14.078125 21.382812 14.078125 L 42.925781 14.078125 C 43.105469 14.078125 43.246094 13.9375 43.246094 13.761719 C 43.246094 13.582031 43.105469 13.441406 42.925781 13.441406 Z M 33.304688 20.480469 C 31.742188 20.480469 30.53125 20.902344 29.707031 21.730469 C 28.921875 22.519531 28.523438 23.625 28.527344 25.011719 L 28.847656 25.046875 L 28.527344 25.046875 L 28.527344 27.519531 L 26.925781 27.519531 C 26.75 27.519531 26.609375 27.664062 26.609375 27.839844 L 26.609375 31.039062 C 26.609375 31.214844 26.75 31.359375 26.925781 31.359375 L 28.527344 31.359375 L 28.527344 41.28125 C 28.527344 41.457031 28.671875 41.601562 28.847656 41.601562 L 33.328125 41.601562 C 33.503906 41.601562 33.648438 41.457031 33.648438 41.28125 L 33.648438 31.359375 L 35.960938 31.359375 C 36.117188 31.359375 36.25 31.246094 36.273438 31.089844 C 36.277344 31.074219 36.527344 29.53125 36.644531 27.863281 C 36.652344 27.773438 36.617188 27.6875 36.558594 27.621094 C 36.5 27.558594 36.414062 27.519531 36.324219 27.519531 L 33.007812 27.519531 L 33.007812 25.472656 C 33.007812 25.3125 33.308594 24.960938 33.609375 24.960938 L 36.527344 24.960938 C 36.703125 24.960938 36.847656 24.816406 36.847656 24.640625 L 36.847656 20.800781 C 36.847656 20.625 36.703125 20.480469 36.527344 20.480469 Z M 33.304688 21.121094 L 36.207031 21.121094 L 36.207031 24.320312 L 33.609375 24.320312 C 33.007812 24.320312 32.367188 24.914062 32.367188 25.472656 L 32.367188 27.839844 C 32.367188 28.015625 32.511719 28.160156 32.6875 28.160156 L 35.980469 28.160156 C 35.890625 29.257812 35.753906 30.257812 35.683594 30.71875 L 33.328125 30.71875 C 33.152344 30.71875 33.007812 30.863281 33.007812 31.039062 L 33.007812 40.960938 L 29.167969 40.960938 L 29.167969 31.039062 C 29.167969 30.863281 29.023438 30.71875 28.847656 30.71875 L 27.246094 30.71875 L 27.246094 28.160156 L 28.847656 28.160156 C 29.023438 28.160156 29.167969 28.015625 29.167969 27.839844 L 29.167969 25.007812 C 29.164062 23.796875 29.5 22.847656 30.160156 22.179688 C 30.859375 21.480469 31.917969 21.121094 33.304688 21.121094 Z M 49.328125 23.039062 C 49.152344 23.039062 49.007812 23.183594 49.007812 23.359375 L 49.007812 24.640625 C 49.007812 24.816406 49.152344 24.960938 49.328125 24.960938 C 49.503906 24.960938 49.648438 24.816406 49.648438 24.640625 L 49.648438 23.359375 C 49.648438 23.183594 49.503906 23.039062 49.328125 23.039062 Z M 49.328125 25.601562 C 49.152344 25.601562 49.007812 25.742188 49.007812 25.921875 L 49.007812 28.480469 C 49.007812 28.65625 49.152344 28.800781 49.328125 28.800781 C 49.503906 28.800781 49.648438 28.65625 49.648438 28.480469 L 49.648438 25.921875 C 49.648438 25.742188 49.503906 25.601562 49.328125 25.601562 Z M 49.328125 25.601562 "/>
</g>
</svg>
